# xmcd
#
# Track frame offsets:
#	150
#	20538
#	41986
#	61285
#	84581
#	106477
#	130550
#	148883
#	187481
#	207662
#
# Disc length: 3238 seconds
#
# Revision: 0
# Processed by: cddbd v1.5.2PL0 Copyright (c) Steve Scherf et al.
# Submitted via: EasyCDDAExtractor 15.2.5.1
#
DISCID=9d0ca40a
DTITLE=the horrors - skying
DYEAR=1900
DGENRE=
TTITLE0=changing the rain
TTITLE1=you said
TTITLE2=i can see through you
TTITLE3=endless blue
TTITLE4=dive in
TTITLE5=still life
TTITLE6=wild eyed
TTITLE7=moving further away
TTITLE8=monica gems
TTITLE9=oceans burning
EXTD=
EXTT0=
EXTT1=
EXTT2=
EXTT3=
EXTT4=
EXTT5=
EXTT6=
EXTT7=
EXTT8=
EXTT9=
PLAYORDER=
